<svg width="24" height="24" viewBox="0 0 24 24" fill="none" xmlns="http://www.w3.org/2000/svg">
<rect width="24" height="24" rx="4" fill="#326284"/>
<rect x="0.5" y="0.5" width="23" height="23" rx="3.5" stroke="white" stroke-opacity="0.38"/>
<path d="M8.22042 14.8473C9.29825 14.8473 10.2221 13.962 10.2221 12.8456C10.2221 11.7678 9.33674 10.844 8.22042 10.844C7.1426 10.844 6.21875 11.7293 6.21875 12.8456C6.25724 13.962 7.1426 14.8473 8.22042 14.8473Z" fill="white"/>
<path d="M9.72293 15.2338L9.64595 15.1953L9.60745 15.2338C8.76059 15.7342 7.68277 15.7342 6.83591 15.2338L6.79741 15.1953L6.72042 15.2338C5.48862 15.6957 4.71875 16.8505 4.71875 18.1593V18.6213C4.71875 18.8522 4.91122 19.0447 5.14218 19.0447H11.3012V18.1593C11.3012 17.7744 11.3782 17.3895 11.4936 17.0045V16.966V16.9275C11.1472 16.1577 10.5313 15.5418 9.72293 15.2338Z" fill="white"/>
<path d="M11.7204 7.726C12.7982 7.726 13.7221 6.84065 13.7221 5.72433C13.7221 4.64651 12.8367 3.72266 11.7204 3.72266C10.6426 3.72266 9.71875 4.60801 9.71875 5.72433C9.71875 6.84065 10.6041 7.726 11.7204 7.726Z" fill="white"/>
<path d="M13.3792 14.7303L13.5332 14.6533L13.4177 14.5378C13.0327 14.0374 12.8403 13.46 12.8403 12.8826C12.8403 11.6123 13.6871 10.496 14.9189 10.188L15.0729 10.1495L15.0344 9.99557C14.7265 9.14871 14.0721 8.49431 13.2252 8.14787L13.1482 8.10938L13.1097 8.14787C12.2629 8.64829 11.185 8.60979 10.3382 8.14787L10.2997 8.10938L10.2227 8.14787C9.41433 8.45582 8.75994 9.11021 8.45199 9.91858L8.375 10.0726L8.56747 10.111C9.99174 10.265 11.0311 11.4583 11.0311 12.8826C11.0311 13.4985 10.8386 14.0759 10.4537 14.5763L10.3382 14.6918L10.4922 14.7688C11.0311 15.0382 11.493 15.4617 11.8009 15.9621L11.9164 16.1161L12.0319 15.9621C12.3783 15.4232 12.8403 14.9998 13.3792 14.7303Z" fill="white"/>
<path d="M13.6484 12.8454C13.6484 13.9232 14.5338 14.8471 15.6501 14.8471C16.7279 14.8471 17.6518 13.9617 17.6518 12.8454C17.6518 11.7676 16.7664 10.8438 15.6501 10.8438C14.5338 10.8822 13.6484 11.7676 13.6484 12.8454Z" fill="white"/>
<path d="M17.1097 15.2338L17.0327 15.1953L16.9942 15.2338C16.1473 15.7342 15.0695 15.7342 14.2226 15.2338L14.1841 15.1953L14.1071 15.2338C12.8753 15.6957 12.1055 16.8505 12.1055 18.1593V19.0447H19.1498V18.1593C19.1113 16.889 18.3415 15.7342 17.1097 15.2338Z" fill="white"/>
</svg>
