<svg width="20" height="20" viewBox="0 0 20 20" fill="none" xmlns="http://www.w3.org/2000/svg">
<rect width="20" height="20" rx="3.33333" fill="black"/>
<path fill-rule="evenodd" clip-rule="evenodd" d="M11.2802 14.1509H10.509V12.746V6.99393H13.8406L12.4524 9.14708H12.2674C12.2057 9.14708 12.144 9.20773 12.144 9.29871C12.144 11.7854 16 11.7854 16 9.29871C16 9.20773 15.9383 9.14708 15.8766 9.14708H15.6915L14.3033 6.99393C14.8278 6.99393 14.8278 6.23578 14.3342 6.23578H11.527C11.3728 6.0235 11.126 5.84155 10.8792 5.75057C10.7866 4.74981 9.24422 4.74981 9.15167 5.75057C8.87404 5.84155 8.62725 6.0235 8.47301 6.23578H5.69666C5.20308 6.23578 5.17224 6.99393 5.69666 6.99393L4.30848 9.14708H4.12339C4.0617 9.14708 4 9.20773 4 9.29871C4 11.7854 7.85604 11.7854 7.85604 9.29871C7.85604 9.20773 7.79434 9.14708 7.73265 9.14708H7.54756L6.15938 6.99393H9.52185V12.746V14.1509H8.71979C8.25707 14.1509 7.85604 14.5451 7.85604 15H12.144C12.144 14.5451 11.7738 14.1509 11.2802 14.1509ZM13.0386 9.14708L14.0874 7.5398L15.1054 9.14708H13.0386ZM4.8946 9.14708L5.94344 7.5398L6.96144 9.14708H4.8946Z" fill="white"/>
</svg>
