<svg width="13" height="16" viewBox="0 0 13 16" fill="none" xmlns="http://www.w3.org/2000/svg">
<path d="M3.99999 1.90394C4.10106 1.88514 4.20352 1.87141 4.31017 1.87141H8.45736C8.56331 1.87141 8.66647 1.88514 8.76754 1.90394L9.20038 0.636089C9.30633 0.325271 9.08398 0 8.76754 0H4.00063C3.6835 0 3.46185 0.325271 3.56779 0.635368L3.99999 1.90394Z" fill="#808080"/>
<path d="M8.45619 5.06343H4.30899C3.8866 5.06343 3.54367 4.70779 3.54367 4.26976L3.54297 3.58957C3.54297 3.15153 3.8859 2.7959 4.3083 2.7959H8.45549C8.87788 2.7959 9.22082 3.15153 9.22082 3.58957V4.26976C9.22221 4.70779 8.87928 5.06343 8.45619 5.06343Z" fill="#808080"/>
<path fill-rule="evenodd" clip-rule="evenodd" d="M9.71554 6.95288C10.2714 7.65108 10.8261 8.34777 11.375 9.11883C12.049 10.0657 12.4597 11.4195 12.3509 12.6548C12.1836 14.5704 10.761 15.9314 9.10627 15.9864C8.50298 16.0066 7.89685 15.9999 7.29144 15.9931C6.98901 15.9897 6.68676 15.9864 6.38513 15.9864C6.08352 15.9864 5.78136 15.9897 5.47902 15.9931C4.87377 15.9999 4.26779 16.0066 3.66399 15.9864C2.00922 15.9314 0.586603 14.5704 0.41932 12.6548C0.311991 11.4197 0.722518 10.0657 1.39793 9.11883C1.94432 8.35125 2.49646 7.65775 3.04979 6.96274C3.31457 6.63016 3.57963 6.29724 3.84446 5.95569C3.99431 5.99906 4.14975 6.02942 4.31285 6.02942H8.46005C8.62316 6.02942 8.77859 5.99906 8.92844 5.95569C9.19076 6.29374 9.45328 6.62348 9.71554 6.95288ZM4.86328 11.0283L6.2876 13.3825H7.69609L6.14517 11.0958C6.53026 11.0208 6.84678 10.8809 7.09471 10.676C7.34792 10.466 7.50091 10.1761 7.55366 9.80628H8.43199V9.25148H7.53783C7.49036 8.99657 7.3743 8.77415 7.18967 8.58422H8.43199V8.02942H4.86328V8.58422H5.4884C5.75216 8.58422 5.9579 8.64919 6.1056 8.77915C6.25331 8.9041 6.3509 9.06155 6.39838 9.25148H4.86328V9.80628H6.40629C6.35354 10.0162 6.23221 10.1811 6.0423 10.3011C5.85239 10.4161 5.61764 10.4735 5.33805 10.4735H4.86328V11.0283Z" fill="#808080"/>
</svg>
