<svg width="87" height="112" viewBox="0 0 87 112" fill="none" xmlns="http://www.w3.org/2000/svg">
<path fill-rule="evenodd" clip-rule="evenodd" d="M74.6568 27.1563L86.2746 56.025C87.3788 58.7134 85.6665 62.122 82.5781 62.138H77.8093V80.957C77.8093 86.6219 73.1686 91.2467 67.5197 91.2467H57.9181L60.1745 111.97H8.45415L11.0306 70.6193V64.6984C4.29348 57.8333 0.132812 48.4238 0.132812 38.0541C0.132812 17.0427 17.1756 0 38.1869 0C55.4217 0 69.984 11.4578 74.6568 27.1724V27.1563Z" fill="#4384B1"/>
<path fill-rule="evenodd" clip-rule="evenodd" d="M53.0053 30.4032C51.8531 27.9868 51.277 26.4986 51.277 25.9545C51.277 24.8503 51.6451 23.9542 52.3492 23.314C53.0693 22.6579 54.0455 22.3379 55.3097 22.3379C56.5739 22.3379 57.486 22.674 58.2382 23.3781C58.9743 24.0662 59.3424 24.9623 59.3424 26.0825C59.3424 26.5946 58.7822 28.0348 57.6461 30.4032C56.5899 32.6275 53.6614 40.0528 58.6062 35.188C59.5184 34.3238 60.3665 33.2677 61.1346 32.0355C61.2306 31.8914 61.3907 31.6514 61.5827 31.3633C62.9749 29.235 64.4152 28.1788 65.9034 28.1788C66.8635 28.1788 67.7437 28.6269 68.5598 29.5231C69.36 30.4192 69.76 31.4113 69.76 32.4995C69.76 33.4757 69.376 34.3398 68.6398 35.076C67.8877 35.8281 67.0076 36.1801 65.9834 36.1801C64.0631 36.1801 62.3028 36.3562 60.7026 36.6922C56.6219 37.5564 55.0217 38.4045 60.0945 39.7007C61.4067 40.0367 62.8149 40.1967 64.3192 40.1967C66.0794 40.1967 67.4076 40.5328 68.3518 41.1889C69.2799 41.8451 69.76 42.7892 69.76 44.0534C69.76 45.1575 69.3599 46.1658 68.5278 47.0459C67.7277 47.942 66.7995 48.3901 65.7594 48.3901C64.4152 48.3901 62.9909 47.2379 61.4867 44.9495C61.3427 44.7415 61.2306 44.5655 61.1506 44.4695C60.3505 43.2213 59.5184 42.1811 58.6542 41.333C53.7094 36.4522 56.5419 43.8134 57.6141 46.0857C58.7663 48.4861 59.3424 49.9583 59.3424 50.5024C59.3424 51.6546 58.9903 52.5508 58.2862 53.1749C57.5821 53.799 56.5899 54.119 55.3097 54.119C54.0295 54.119 53.1013 53.799 52.3652 53.1269C51.6291 52.4547 51.277 51.5586 51.277 50.4224C51.277 49.8783 51.8371 48.4381 52.9733 46.1017C54.0775 43.7973 56.99 36.5482 51.9812 41.365C51.069 42.2131 50.2369 43.2373 49.4848 44.4375C49.3567 44.6455 49.1967 44.8855 49.0047 45.2216C47.6125 47.3339 46.1882 48.4061 44.716 48.4061C43.7558 48.4061 42.8757 47.958 42.0596 47.0619C41.2594 46.1657 40.8594 45.1736 40.8594 44.0854C40.8594 43.0772 41.2434 42.2131 41.9796 41.477C42.7317 40.7569 43.6118 40.3888 44.636 40.3888C46.5563 40.3888 48.3166 40.2128 49.9168 39.8767C54.1255 38.9806 55.4857 38.1164 50.4609 36.8202C49.1327 36.4682 47.7565 36.3081 46.3002 36.3081C44.524 36.3081 43.1637 35.9881 42.2516 35.348C41.3234 34.7079 40.8594 33.7637 40.8594 32.5315C40.8594 31.3954 41.2594 30.3872 42.0756 29.5231C42.8757 28.6589 43.8038 28.2108 44.844 28.2108C46.2202 28.2108 47.6765 29.363 49.1967 31.6354C49.3247 31.8434 49.4047 31.9714 49.4687 32.0514C50.3009 33.3316 51.149 34.4039 51.9972 35.236C56.9099 40.2288 54.0455 32.6596 52.9893 30.4352L53.0053 30.4032Z" fill="#FFE6D0"/>
</svg>
