<svg width="84" height="116" viewBox="0 0 84 116" fill="none" xmlns="http://www.w3.org/2000/svg">
<path fill-rule="evenodd" clip-rule="evenodd" d="M62.2775 5.16533L82.9389 52.4031C84.161 55.2057 83.5581 58.4809 80.9021 60.0289L76.0953 62.7989H76.2582V80.674C76.2582 85.0084 72.706 88.5605 68.3717 88.5605H60.6807V116.18H11.0802V67.9969C4.46468 64.184 0 57.047 0 48.8997V22.0138C0 9.90702 9.90704 0 22.0138 0H53.7881C57.4707 0 60.6807 2.10196 62.2775 5.16533Z" fill="#4384B1"/>
<path fill-rule="evenodd" clip-rule="evenodd" d="M62.2804 5.16469L82.9418 52.4025C84.1639 55.2051 83.561 58.4803 80.905 60.0283L76.0981 62.7983H76.2611V80.6734C76.2611 85.0077 72.7089 88.5599 68.3746 88.5599H43.4114C37.7409 88.5599 33.1133 83.9159 33.1133 78.2617V10.3138C33.1133 4.64327 37.7572 0.015625 43.4114 0.015625H53.8073C57.4898 0.015625 60.6998 2.11764 62.2967 5.181L62.2804 5.16469Z" fill="#FFE6D0"/>
<path fill-rule="evenodd" clip-rule="evenodd" d="M62.2785 5.16533L66.8572 15.6264C66.7595 15.6264 66.6454 15.6264 66.5313 15.6264H30.2109V10.2981C30.2109 4.62765 34.8549 0 40.5091 0H53.7891C57.4716 0 60.6816 2.10196 62.2785 5.16533Z" fill="#4384B1"/>
<path fill-rule="evenodd" clip-rule="evenodd" d="M62.9759 24.0176L73.1763 47.3513H49.7774C46.5837 47.3513 43.9766 44.7442 43.9766 41.5505V29.8184C43.9766 26.6247 46.5837 24.0176 49.7774 24.0176H62.9759Z" fill="#3E79A3"/>
<path fill-rule="evenodd" clip-rule="evenodd" d="M46.5177 12.6133H26.3125V28.2234H33.0747V26.3006C33.0747 20.4346 37.8653 15.6441 43.7313 15.6441H46.5177V12.6133Z" fill="#4384B1"/>
</svg>
