<svg width="98" height="118" viewBox="0 0 98 118" fill="none" xmlns="http://www.w3.org/2000/svg">
<path fill-rule="evenodd" clip-rule="evenodd" d="M87.9855 36.1591L97.4329 59.6432C98.5928 62.4673 96.7941 66.0648 93.5497 66.0648H88.5402V85.8505C88.5402 91.8014 83.6652 96.6764 77.7143 96.6764H69.9647V118.463H18.3233V79.5298C7.22845 71.5785 0 58.5673 0 43.8582C0 19.6345 19.6345 0 43.8582 0C60.5846 0 76.6721 9.04398 83.5307 24.6608C85.0773 28.191 86.523 32.5112 87.9855 36.1423V36.1591Z" fill="#4384B1"/>
<path fill-rule="evenodd" clip-rule="evenodd" d="M74.7045 44.0106H63.2735C57.9614 44.0106 53.5907 48.3645 53.5907 53.6934V118.481H49.5898V53.6934C49.5898 46.1624 55.7424 40.0098 63.2735 40.0098H74.7045V44.0106Z" fill="#FFE6D0"/>
<path fill-rule="evenodd" clip-rule="evenodd" d="M73.9156 32.4941C77.1096 32.4941 79.6984 35.0829 79.6984 38.2769C79.6984 41.4709 77.1096 44.0597 73.9156 44.0597C70.7216 44.0597 68.1328 41.4709 68.1328 38.2769C68.1328 35.0829 70.7216 32.4941 73.9156 32.4941Z" fill="#FFE6D0"/>
</svg>
