<svg width="87" height="112" viewBox="0 0 87 112" fill="none" xmlns="http://www.w3.org/2000/svg">
<path fill-rule="evenodd" clip-rule="evenodd" d="M74.8155 27.2786L86.4793 56.2573C87.5969 58.9489 85.8812 62.3804 82.7803 62.3804H77.9951V81.2692C77.9951 86.9516 73.3359 91.6108 67.6535 91.6108H64.9146V112.42H10.9398V64.9619C4.17128 58.0674 0 48.623 0 38.2027C0 17.1102 17.0944 0 38.2027 0C55.5017 0 70.109 11.5065 74.8155 27.2786Z" fill="#4384B1"/>
<path fill-rule="evenodd" clip-rule="evenodd" d="M52.6412 20.791C61.4875 20.791 68.6652 27.9688 68.6652 36.8151C68.6652 45.6613 61.4875 52.8391 52.6412 52.8391C43.7949 52.8391 36.6172 45.6613 36.6172 36.8151C36.6172 27.9688 43.7949 20.791 52.6412 20.791Z" fill="#FFE6D0"/>
<path fill-rule="evenodd" clip-rule="evenodd" d="M52.6378 27.1035C58.0054 27.1035 62.3498 31.448 62.3498 36.8155C62.3498 42.1831 58.0054 46.5275 52.6378 46.5275C47.2702 46.5275 42.9258 42.1831 42.9258 36.8155C42.9258 31.448 47.2702 27.1035 52.6378 27.1035Z" fill="#4384B1"/>
<path fill-rule="evenodd" clip-rule="evenodd" d="M52.6362 32.0938C55.2334 32.0938 57.3426 34.203 57.3426 36.8002C57.3426 39.3974 55.2334 41.5067 52.6362 41.5067C50.0389 41.5067 47.9297 39.3974 47.9297 36.8002C47.9297 34.203 50.0389 32.0938 52.6362 32.0938Z" fill="#FFE6D0"/>
</svg>
