<svg width="96" height="111" viewBox="0 0 96 111" fill="none" xmlns="http://www.w3.org/2000/svg">
<path fill-rule="evenodd" clip-rule="evenodd" d="M80.9244 30.874L91.7679 57.8123C92.8057 60.3218 91.2102 63.5128 88.3289 63.5128H83.8831V81.0792C83.8831 86.3615 79.5612 90.6834 74.2789 90.6834H67.4011V110.031H21.5798V65.9138C15.2906 59.5007 11.418 50.733 11.418 41.0514C11.418 21.4403 27.3114 5.54688 46.9225 5.54688C63.0018 5.54688 76.5871 16.2354 80.9554 30.9051L80.9244 30.874Z" fill="#4384B1"/>
<path fill-rule="evenodd" clip-rule="evenodd" d="M28.9811 0H66.0502C74.9263 0 82.2069 7.2651 82.2069 16.1567V32.3134H12.8398V16.1567C12.8398 7.28059 20.105 0 28.9966 0H28.9811Z" fill="#FFE6D0"/>
<path fill-rule="evenodd" clip-rule="evenodd" d="M6.41312 21.625H88.6529C92.1693 21.625 95.066 24.5063 95.066 28.0226C95.066 31.5545 92.1847 34.4358 88.6529 34.4358H6.41312C2.89675 34.4358 0 31.5545 0 28.0226C0 24.5063 2.88126 21.625 6.41312 21.625Z" fill="#FFE6D0"/>
</svg>
